<?xml version="1.0" encoding="UTF-8"?><svg id="Layer_1" xmlns="http://www.w3.org/2000/svg" viewBox="0 0 831.4 137.89"><defs><style>.cls-1{fill:#fff;}</style></defs><g><path class="cls-1" d="M240.55,85.38c-2.15,3.88-5.24,6.91-9.27,9.08-4.03,2.17-8.77,3.26-14.23,3.26h-19.33V46.53h19.33c5.5,0,10.26,1.06,14.26,3.19,4.01,2.12,7.08,5.11,9.23,8.98,2.15,3.86,3.22,8.3,3.22,13.32s-1.07,9.47-3.22,13.36Zm-13.32-2.57c2.68-2.56,4.02-6.15,4.02-10.79s-1.34-8.23-4.02-10.79c-2.68-2.56-6.43-3.84-11.26-3.84h-5.87v29.25h5.87c4.83,0,8.58-1.28,11.26-3.84Z"/><path class="cls-1" d="M277.08,97.72l-11.08-19.33h-2.82v19.33h-12.38V46.53h21.14c4.05,0,7.48,.7,10.28,2.1,2.8,1.4,4.9,3.32,6.3,5.76,1.4,2.44,2.1,5.23,2.1,8.36,0,3.72-1.03,6.88-3.08,9.49-2.05,2.61-5.03,4.39-8.94,5.36l12.16,20.13h-13.68Zm-13.9-27.8h7.68c2.46,0,4.27-.54,5.43-1.63,1.16-1.09,1.74-2.69,1.74-4.82s-.59-3.62-1.77-4.78c-1.18-1.16-2.98-1.74-5.39-1.74h-7.68v12.96Z"/><path class="cls-1" d="M309.22,56.38v10.72h17.31v9.34h-17.31v11.37h19.48v9.92h-31.86V46.53h31.86v9.85h-19.48Z"/><path class="cls-1" d="M367.44,88.38h-19.19l-3.19,9.34h-13.03l18.75-50.83h14.26l18.75,50.83h-13.18l-3.19-9.34Zm-3.19-9.41l-6.37-18.83-6.45,18.83h12.82Z"/><path class="cls-1" d="M446.14,46.9v50.83h-12.38v-31.78l-11.01,31.78h-10.72l-11.08-31.86v31.86h-12.38V46.9h15.13l13.83,35.4,13.54-35.4h15.06Z"/><path class="cls-1" d="M504.75,72.49c-2.87,2.78-7.25,4.17-13.14,4.17h-9.7v21.07h-6.59V47.26h16.29c5.69,0,10.03,1.38,13,4.13,2.97,2.75,4.45,6.3,4.45,10.64s-1.44,7.69-4.31,10.46Zm-5.03-3.66c1.74-1.59,2.61-3.86,2.61-6.81,0-6.23-3.57-9.34-10.72-9.34h-9.7v18.54h9.7c3.67,0,6.37-.8,8.11-2.39Z"/><path class="cls-1" d="M527.3,94.94c-3.86-2.2-6.91-5.26-9.16-9.2-2.25-3.93-3.37-8.36-3.37-13.28s1.12-9.35,3.37-13.29c2.24-3.94,5.29-7,9.16-9.19,3.86-2.2,8.14-3.29,12.82-3.29s9.02,1.1,12.89,3.29c3.86,2.2,6.9,5.25,9.13,9.16,2.22,3.91,3.33,8.35,3.33,13.32s-1.11,9.41-3.33,13.32c-2.22,3.91-5.26,6.96-9.13,9.16-3.86,2.2-8.16,3.29-12.89,3.29s-8.96-1.1-12.82-3.29Zm22.34-4.89c2.82-1.64,5.05-3.98,6.66-7.02,1.62-3.04,2.43-6.56,2.43-10.57s-.81-7.59-2.43-10.61c-1.62-3.02-3.82-5.35-6.62-6.99-2.8-1.64-5.99-2.46-9.56-2.46s-6.76,.82-9.56,2.46c-2.8,1.64-5.01,3.97-6.63,6.99-1.62,3.02-2.42,6.55-2.42,10.61s.81,7.53,2.42,10.57c1.62,3.04,3.84,5.38,6.66,7.02,2.82,1.64,6,2.46,9.52,2.46s6.7-.82,9.52-2.46Z"/><path class="cls-1" d="M605.21,47.26v5.36h-13.76v45.11h-6.59V52.61h-13.83v-5.36h34.18Z"/><path class="cls-1" d="M619.91,52.61v16.87h18.39v5.43h-18.39v17.38h20.56v5.43h-27.15V47.19h27.15v5.43h-20.56Z"/><path class="cls-1" d="M690.14,97.72h-6.59l-26.5-40.18v40.18h-6.59V47.19h6.59l26.5,40.11V47.19h6.59v50.54Z"/><path class="cls-1" d="M732.42,47.26v5.36h-13.76v45.11h-6.59V52.61h-13.83v-5.36h34.18Z"/><path class="cls-1" d="M747.12,47.26v50.47h-6.59V47.26h6.59Z"/><path class="cls-1" d="M788.17,86.5h-22.01l-4.05,11.22h-6.95l18.25-50.18h7.6l18.18,50.18h-6.95l-4.05-11.22Zm-1.88-5.36l-9.12-25.49-9.12,25.49h18.24Z"/><path class="cls-1" d="M813.73,92.37h17.67v5.36h-24.26V47.26h6.59v45.11Z"/></g><path class="cls-1" d="M76.95,0C34.45,0,0,34.45,0,76.95c0,13.64,3.59,26.43,9.81,37.55,2.58-5.93,8.47-10.08,15.35-10.08,7.35,0,13.53,4.77,15.78,11.36,3.75,.63,7.05,2.49,9.52,5.17,4.26-4.78,10.16-8.05,16.82-8.95l1.5-7.27c-.01-.3-.01-.58,.03-.78,.26-1.3,1.33-2.7,2.72-3.65h-1.54c-.17-.51-.57-1.81-1.08-3.73h-1.2c-.22-.68-.78-2.16-1.48-4.34-1.36,.74-2.95,1.9-4.63,3.8-2.87,3.24-4.59,8.77-6.02,8.04-1.42-.73-.46-12.23,3.2-19.73,1.12-2.3,2.69-4.2,4.19-5.68-.95-5.62-1.66-12.44-1.66-20.46,0-9.9,3.05-19.23,6.88-26.57,3.36-6.43,7.31-11.34,10.35-13.77h0c3.03,2.43,6.99,7.34,10.35,13.77,3.83,7.34,6.88,16.67,6.88,26.57,0,8.02-.71,14.85-1.66,20.46,1.5,1.48,3.06,3.37,4.18,5.67,3.66,7.5,4.63,19,3.2,19.73-1.42,.73-3.15-4.8-6.02-8.04-1.68-1.89-3.26-3.05-4.62-3.79-.7,2.18-1.26,3.66-1.48,4.34h-1.2c-.51,1.93-.91,3.22-1.08,3.73h-1.32c1.25,1.33,2.17,2.92,2.55,4.42,.06,.09,.16,.16,.21,.26,.58,1.14,3.84,11.11,7.01,21.02,1.95-1.11,4.18-1.79,6.58-1.79,5.96,0,10.96,3.89,12.74,9.25,3.03-2.55,6.79-4.2,10.95-4.6-.99-2.37-1.54-4.97-1.54-7.7,0-11.11,9-20.11,20.11-20.11,1.85,0,3.61,.33,5.32,.8,2.68-7.82,4.2-16.17,4.2-24.9C153.89,34.45,119.44,0,76.95,0ZM37.37,62.07l-4.06-1.15-3.25,2.69-.16-4.22-3.56-2.26,3.96-1.45,1.05-4.09,2.61,3.32,4.21-.26-2.35,3.5,1.55,3.92Zm78.33-16.08l1.56-3.08-1.66-3.04,3.42,.53,2.38-2.51,.55,3.41,3.12,1.48-3.08,1.58-.45,3.43-2.45-2.44-3.4,.64Zm10.6,41.84l-.51,2.59-1.75-1.98-2.62,.32,1.34-2.27-1.11-2.4,2.58,.57,1.93-1.8,.25,2.63,2.31,1.28-2.42,1.05Z"/></svg>